# xmcd
#
# Track frame offsets:
#   150
#   15732
#   30391
#   44071
#   62621
#   77715
#   88664
#   103350
#   119411
#   134860
#   155131
#   166415
#   182890
#   196654
#
# Disc length: 2809 seconds
#
# Revision: 0
# Processed by: cddbd v1.4PL0 Copyright (c) Steve Scherf et al.
# Submitted via: uFREEDB ActiveX Control 1.5
#
DISCID=c60af70e
DTITLE=Kadu e Camilinho - Alegria ao Povão
DYEAR=2003
DGENRE=Country
TTITLE0=Filézinho
TTITLE1=Feito Espora
TTITLE2=Cowboy Violeiro
TTITLE3=Mete Chifre Nele
TTITLE4=Como Reconquistar o Seu Amor
TTITLE5=Parei de Beber Só Comendo
TTITLE6=Delírio
TTITLE7=Mundo Velho Sem Porteira
TTITLE8=O Vento
TTITLE9=O Que Eu Faço Amanhã?
TTITLE10=Quanto Mais Abaixa Mais Aparece
TTITLE11=A Luz de Vela
TTITLE12=Já é Madrugada
TTITLE13=Coração de Luto
EXTD=
EXTT0=
EXTT1=
EXTT2=
EXTT3=
EXTT4=
EXTT5=
EXTT6=
EXTT7=
EXTT8=
EXTT9=
EXTT10=
EXTT11=
EXTT12=
EXTT13=
PLAYORDER=
